TITLE ""
FILE "2Q_t_0052-0069.mp3" MP3
  TRACK 01 AUDIO
    TITLE "2Q_t_0052-0069_01"
    INDEX 01 00:00:00
  TRACK 02 AUDIO
    TITLE "2Q_t_0052-0069_02"
    INDEX 01 00:00:08
  TRACK 03 AUDIO
    TITLE "2Q_t_0052-0069_03"
    INDEX 01 00:01:47
  TRACK 04 AUDIO
    TITLE "2Q_t_0052-0069_04"
    INDEX 01 00:02:25
  TRACK 05 AUDIO
    TITLE "2Q_t_0052-0069_05"
    INDEX 01 00:04:26
  TRACK 06 AUDIO
    TITLE "2Q_t_0052-0069_06"
    INDEX 01 00:04:71
  TRACK 07 AUDIO
    TITLE "2Q_t_0052-0069_07"
    INDEX 01 00:06:17
  TRACK 08 AUDIO
    TITLE "2Q_t_0052-0069_08"
    INDEX 01 00:06:62
  TRACK 09 AUDIO
    TITLE "2Q_t_0052-0069_09"
    INDEX 01 00:08:57
  TRACK 10 AUDIO
    TITLE "2Q_t_0052-0069_10"
    INDEX 01 00:09:27
  TRACK 11 AUDIO
    TITLE "2Q_t_0052-0069_11"
    INDEX 01 00:10:46
  TRACK 12 AUDIO
    TITLE "2Q_t_0052-0069_12"
    INDEX 01 00:11:20
  TRACK 13 AUDIO
    TITLE "2Q_t_0052-0069_13"
    INDEX 01 00:13:25
  TRACK 14 AUDIO
    TITLE "2Q_t_0052-0069_14"
    INDEX 01 00:13:70
  TRACK 15 AUDIO
    TITLE "2Q_t_0052-0069_15"
    INDEX 01 00:15:37
  TRACK 16 AUDIO
    TITLE "2Q_t_0052-0069_16"
    INDEX 01 00:16:09
  TRACK 17 AUDIO
    TITLE "2Q_t_0052-0069_17"
    INDEX 01 00:18:28
  TRACK 18 AUDIO
    TITLE "2Q_t_0052-0069_18"
    INDEX 01 00:18:71
  TRACK 19 AUDIO
    TITLE "2Q_t_0052-0069_19"
    INDEX 01 00:20:01
  TRACK 20 AUDIO
    TITLE "2Q_t_0052-0069_20"
    INDEX 01 00:20:50
  TRACK 21 AUDIO
    TITLE "2Q_t_0052-0069_21"
    INDEX 01 00:23:66
  TRACK 22 AUDIO
    TITLE "2Q_t_0052-0069_22"
    INDEX 01 00:24:34
  TRACK 23 AUDIO
    TITLE "2Q_t_0052-0069_23"
    INDEX 01 00:25:42
  TRACK 24 AUDIO
    TITLE "2Q_t_0052-0069_24"
    INDEX 01 00:26:16
  TRACK 25 AUDIO
    TITLE "2Q_t_0052-0069_25"
    INDEX 01 00:27:27
  TRACK 26 AUDIO
    TITLE "2Q_t_0052-0069_26"
    INDEX 01 00:27:72
  TRACK 27 AUDIO
    TITLE "2Q_t_0052-0069_27"
    INDEX 01 00:29:34
  TRACK 28 AUDIO
    TITLE "2Q_t_0052-0069_28"
    INDEX 01 00:30:06
  TRACK 29 AUDIO
    TITLE "2Q_t_0052-0069_29"
    INDEX 01 00:32:20
  TRACK 30 AUDIO
    TITLE "2Q_t_0052-0069_30"
    INDEX 01 00:32:65
  TRACK 31 AUDIO
    TITLE "2Q_t_0052-0069_31"
    INDEX 01 00:33:72
  TRACK 32 AUDIO
    TITLE "2Q_t_0052-0069_32"
    INDEX 01 00:34:44
  TRACK 33 AUDIO
    TITLE "2Q_t_0052-0069_33"
    INDEX 01 00:35:75
  TRACK 34 AUDIO
    TITLE "2Q_t_0052-0069_34"
    INDEX 01 00:36:43
  TRACK 35 AUDIO
    TITLE "2Q_t_0052-0069_35"
    INDEX 01 00:37:55
  TRACK 36 AUDIO
    TITLE "2Q_t_0052-0069_36"
    INDEX 01 00:38:27
  TRACK 37 AUDIO
    TITLE "2Q_t_0052-0069_37"
    INDEX 01 00:41:52
  TRACK 38 AUDIO
    TITLE "2Q_t_0052-0069_38"
    INDEX 01 00:42:22
  TRACK 39 AUDIO
    TITLE "2Q_t_0052-0069_39"
    INDEX 01 00:43:47
  TRACK 40 AUDIO
    TITLE "2Q_t_0052-0069_40"
    INDEX 01 00:44:17
  TRACK 41 AUDIO
    TITLE "2Q_t_0052-0069_41"
    INDEX 01 00:45:48
  TRACK 42 AUDIO
    TITLE "2Q_t_0052-0069_42"
    INDEX 01 00:46:22
  TRACK 43 AUDIO
    TITLE "2Q_t_0052-0069_43"
    INDEX 01 00:47:57
  TRACK 44 AUDIO
    TITLE "2Q_t_0052-0069_44"
    INDEX 01 00:48:29
  TRACK 45 AUDIO
    TITLE "2Q_t_0052-0069_45"
    INDEX 01 00:49:40
  TRACK 46 AUDIO
    TITLE "2Q_t_0052-0069_46"
    INDEX 01 00:50:08
  TRACK 47 AUDIO
    TITLE "2Q_t_0052-0069_47"
    INDEX 01 00:51:47
  TRACK 48 AUDIO
    TITLE "2Q_t_0052-0069_48"
    INDEX 01 00:52:21
  TRACK 49 AUDIO
    TITLE "2Q_t_0052-0069_49"
    INDEX 01 00:56:66
  TRACK 50 AUDIO
    TITLE "2Q_t_0052-0069_50"
    INDEX 01 00:57:34
  TRACK 51 AUDIO
    TITLE "2Q_t_0052-0069_51"
    INDEX 01 00:58:53
  TRACK 52 AUDIO
    TITLE "2Q_t_0052-0069_52"
    INDEX 01 00:59:23
  TRACK 53 AUDIO
    TITLE "2Q_t_0052-0069_53"
    INDEX 01 01:02:54
  TRACK 54 AUDIO
    TITLE "2Q_t_0052-0069_54"
    INDEX 01 01:03:23
  TRACK 55 AUDIO
    TITLE "2Q_t_0052-0069_55"
    INDEX 01 01:04:67
  TRACK 56 AUDIO
    TITLE "2Q_t_0052-0069_56"
    INDEX 01 01:05:37
  TRACK 57 AUDIO
    TITLE "2Q_t_0052-0069_57"
    INDEX 01 01:06:52
  TRACK 58 AUDIO
    TITLE "2Q_t_0052-0069_58"
    INDEX 01 01:07:20
  TRACK 59 AUDIO
    TITLE "2Q_t_0052-0069_59"
    INDEX 01 01:08:32
  TRACK 60 AUDIO
    TITLE "2Q_t_0052-0069_60"
    INDEX 01 01:09:04
  TRACK 61 AUDIO
    TITLE "2Q_t_0052-0069_61"
    INDEX 01 01:11:36
  TRACK 62 AUDIO
    TITLE "2Q_t_0052-0069_62"
    INDEX 01 01:12:06
  TRACK 63 AUDIO
    TITLE "2Q_t_0052-0069_63"
    INDEX 01 01:13:05
  TRACK 64 AUDIO
    TITLE "2Q_t_0052-0069_64"
    INDEX 01 01:13:54
  TRACK 65 AUDIO
    TITLE "2Q_t_0052-0069_65"
    INDEX 01 01:14:58
  TRACK 66 AUDIO
    TITLE "2Q_t_0052-0069_66"
    INDEX 01 01:15:28
  TRACK 67 AUDIO
    TITLE "2Q_t_0052-0069_67"
    INDEX 01 01:16:45
  TRACK 68 AUDIO
    TITLE "2Q_t_0052-0069_68"
    INDEX 01 01:17:19
  TRACK 69 AUDIO
    TITLE "2Q_t_0052-0069_69"
    INDEX 01 01:19:37
  TRACK 70 AUDIO
    TITLE "2Q_t_0052-0069_70"
    INDEX 01 01:20:09
  TRACK 71 AUDIO
    TITLE "2Q_t_0052-0069_71"
    INDEX 01 01:21:13
  TRACK 72 AUDIO
    TITLE "2Q_t_0052-0069_72"
    INDEX 01 01:21:60
  TRACK 73 AUDIO
    TITLE "2Q_t_0052-0069_73"
    INDEX 01 01:23:02
